<?xml version="1.0" encoding="UTF-8"?>
<svg width="35px" height="35px" viewBox="0 0 35 35" version="1.1" xmlns="http://www.w3.org/2000/svg" xmlns:xlink="http://www.w3.org/1999/xlink">
    <title>neoboard</title>
    <g id="Page-1" stroke="none" stroke-width="1" fill="none" fill-rule="evenodd">
        <g id="neoboard">
            <path d="M17.5,0 C7.83503,0 0,7.83503 0,17.5 C0,27.165 7.83503,35.0001 17.5,35.0001" id="Path" fill="#E95D12"></path>
            <path d="M35,17.5003 C35,7.8353 27.165,0.000272751 17.5,0.000272751 L17.5,17.5003" id="Path" fill="#B7251E"></path>
            <circle id="Oval" fill="#E95D12" fill-rule="nonzero" transform="translate(29.951830, 29.952170) scale(-1, 1) translate(-29.951830, -29.952170) " cx="29.95183" cy="29.95217" r="2.35577"></circle>
            <circle id="Oval" fill="#E95D12" fill-rule="nonzero" transform="translate(29.951830, 22.548170) scale(-1, 1) translate(-29.951830, -22.548170) " cx="29.95183" cy="22.54817" r="2.35577"></circle>
            <circle id="Oval" fill="#E95D12" fill-rule="nonzero" transform="translate(22.548030, 29.952170) scale(-1, 1) translate(-22.548030, -29.952170) " cx="22.54803" cy="29.95217" r="2.35577"></circle>
            <circle id="Oval" fill="#E95D12" fill-rule="nonzero" transform="translate(22.548030, 22.548170) scale(-1, 1) translate(-22.548030, -22.548170) " cx="22.54803" cy="22.54817" r="2.35577"></circle>
        </g>
    </g>
</svg>