<svg width="70" height="76" viewBox="0 0 70 76" fill="none" xmlns="http://www.w3.org/2000/svg">
<g clip-path="url(#clip0_6137_6815)">
<path d="M47.6935 3.4048L4.84586 9.09702C2.06871 9.46596 0.113011 12.0427 0.477688 14.8523L7.0086 65.1691C7.37328 67.9787 9.92023 69.9572 12.6974 69.5883L55.5451 63.896C58.3222 63.5271 60.2779 60.9504 59.9132 58.1408L53.3823 7.82402C53.0176 5.01441 50.4707 3.03586 47.6935 3.4048Z" fill="#F4A36E"/>
<path d="M60.1742 10.7868H16.8937C14.0885 10.7868 11.8145 13.0874 11.8145 15.9254V66.7504C11.8145 69.5884 14.0885 71.8891 16.8937 71.8891H60.1742C62.9794 71.8891 65.2535 69.5884 65.2535 66.7504V15.9254C65.2535 13.0874 62.9794 10.7868 60.1742 10.7868Z" fill="#FCE2CF"/>
<path d="M18.2769 50.9978L26.933 36.7219C27.0181 36.5133 27.1625 36.335 27.3479 36.2095C27.5333 36.0841 27.7514 36.0171 27.9744 36.0171C28.1975 36.0171 28.4155 36.0841 28.6009 36.2095C28.7863 36.335 28.9307 36.5133 29.0159 36.7219L33.9244 44.8141C34.0078 45.0234 34.1511 45.2026 34.3359 45.3288C34.5207 45.4551 34.7386 45.5225 34.9616 45.5225C35.1846 45.5225 35.4025 45.4551 35.5873 45.3288C35.7721 45.2026 35.9154 45.0234 35.9988 44.8141L44.3988 30.9959C44.4822 30.7867 44.6255 30.6075 44.8103 30.4812C44.9951 30.355 45.213 30.2876 45.436 30.2876C45.659 30.2876 45.8769 30.355 46.0617 30.4812C46.2465 30.6075 46.3898 30.7867 46.4732 30.9959L58.8 51.3173L18.2769 50.9978Z" fill="white"/>
<path d="M35.5376 34.8046C37.0416 34.8046 38.2608 33.5711 38.2608 32.0496C38.2608 30.528 37.0416 29.2946 35.5376 29.2946C34.0337 29.2946 32.8145 30.528 32.8145 32.0496C32.8145 33.5711 34.0337 34.8046 35.5376 34.8046Z" fill="white"/>
</g>
<defs>
<clipPath id="clip0_6137_6815">
<rect width="70" height="76" fill="white"/>
</clipPath>
</defs>
</svg>
